<?xml version="1.0" standalone="no"?>
<!DOCTYPE svg PUBLIC "-//W3C//DTD SVG 20010904//EN"
 "http://www.w3.org/TR/2001/REC-SVG-20010904/DTD/svg10.dtd">
<svg version="1.0" xmlns="http://www.w3.org/2000/svg"
 width="16.000000pt" height="16.000000pt" viewBox="0 0 16.000000 16.000000"
 preserveAspectRatio="xMidYMid meet">

<g transform="translate(0.000000,16.000000) scale(0.100000,-0.100000)"
fill="#000000" stroke="none">
<path d="M20 140 c-13 -13 -20 -33 -20 -60 0 -27 7 -47 20 -60 27 -27 93 -27
120 0 27 27 27 93 0 120 -13 13 -33 20 -60 20 -27 0 -47 -7 -60 -20z m78 -21
c8 -12 9 -18 3 -14 -15 8 -14 -11 1 -35 10 -15 9 -23 -6 -39 -11 -12 -24 -21
-29 -21 -6 0 -7 3 -4 7 4 3 2 12 -5 20 -8 11 -7 12 6 7 21 -8 21 14 0 37 -13
14 -13 20 -2 38 16 26 20 26 36 0z"/>
<path d="M65 100 c3 -5 8 -10 11 -10 2 0 4 5 4 10 0 6 -5 10 -11 10 -5 0 -7
-4 -4 -10z"/>
</g>
</svg>
